Patient4_TMGait_0pt7_02_left_29_EMG.mot
version=1
nRows=37
nColumns=33
inDegrees=no
endheader
time	1LAddLong	2LGlutMax	3LGlutMed	4LIliopsoas	5LSemiMemb	6LBicFemLong	7LRecFem	8LVastMed	9LVastLat	10LGasMed	11LTibAnt	12lTibPost	13LPeroneusLong	14LSol	15LExtDigLong	16LFlexDigLong	17RAddLong	18RGlutMax	19RGlutMed	20RIliopsoas	21RSemiMemb	22RBicFemLong	23RRecFem	24RVastMed	25RVastLat	26RGasMed	27RTibAnt	28RTibPost	29RPeroneusLong	30RSol	31RExtDigLong	32RFlexDigLong
33.89	0.006104	-0.24277	-0.11917	0.00351	0.008545	0.028534	-0.18585	0.006409	-0.049744	-0.16693	-0.098572	-0.006256	-0.044708	0.15869	0.1059	0.034485	0.021667	-0.50171	-0.72861	-0.18555	0.76752	0.57983	-0.35629	-0.46936	0.46249	0.005188	-0.27268	-0.00946	0.12283	0.15442	-0.005341	0.003204
33.891	0.013275	-0.22385	-0.14389	0.022125	0.030975	0.012817	-0.21698	0.003662	-0.04776	-0.12512	-0.12039	-0.032654	-0.06134	0.18646	-0.064697	0.02121	0.054932	-0.52063	-0.4361	-0.10574	0.42511	0.56458	-0.44174	-0.48233	0.69611	-0.007782	0.008545	-0.010223	0.062408	0.20844	-0.002289	0.003967
33.892	0.00824	-0.22217	-0.11337	0.015564	0.019531	-0.000916	-0.23132	0.001526	-0.056915	-0.1091	-0.061798	-0.000305	-0.06424	0.19867	-0.05722	0.002594	0.10162	-0.4042	-0.31052	0.007629	0.24307	0.75501	-0.40146	-0.37125	0.78934	-0.00946	0.29877	-0.007172	-0.015411	0.2298	-0.000763	-0.005798
33.893	0.008698	-0.18387	-0.11322	0.013733	0.003967	-0.016785	-0.25482	0.003357	-0.057373	-0.12909	0.097046	-0.008392	-0.066528	0.25696	0.025635	0.008087	0.095367	-0.31891	-0.50079	0.17273	0.58945	0.93521	-0.28168	-0.14084	0.71808	-0.014343	0.17853	-0.005493	0.15503	0.21271	-0.002136	-0.001831
33.894	0.014648	-0.15976	-0.10132	0.005035	0.001221	-0.024414	-0.27268	0.00473	-0.054321	-0.11246	0.2652	-0.016632	-0.092773	0.26077	0.030518	-0.014343	0.13519	-0.29129	-0.31891	0.28397	0.66254	0.65857	-0.10788	0.22201	0.000916	-0.006714	0.050659	-0.005798	-0.34805	0.11597	0.001831	-0.007782
33.895	0.012512	-0.17761	-0.11261	0.002747	0.00412	0.008698	-0.2771	0.002289	-0.066376	-0.11704	0.16922	-0.007935	-0.006866	0.2562	-0.080872	-0.002899	0.21668	-0.33279	-0.16846	0.21271	0.34058	0.47012	-0.12665	0.11185	-0.51559	-0.009003	0.11276	-0.005188	0.084686	0.019531	-0.000458	-0.011597
33.896	0.006561	-0.14465	-0.053711	-0.002594	-0.00351	0.066528	-0.26199	0.007477	-0.074921	-0.10101	0.038605	-0.012054	0.050354	0.20493	-0.1268	0.000916	0.25986	-0.34637	-0.27954	-0.001068	0.22995	0.43747	-0.1149	0.13138	-0.83283	-0.013123	0.12116	-0.007172	0.30136	0.065155	0.003357	-0.006104
33.897	0.001221	-0.13855	-0.077515	0.003815	-0.00473	0.056458	-0.28168	0.004883	-0.075684	-0.088959	-0.053711	-0.010681	-0.002594	0.1294	-0.10086	-0.001831	0.20218	-0.35431	-0.51086	-0.019226	0.42358	0.51041	-0.15778	0.071869	-1.0423	-0.013733	0.12665	-0.00351	0.17273	0.015106	0.002747	-0.009003
33.898	0.00061	-0.1355	-0.093994	-0.009308	-0.009155	0.050659	-0.32196	0.005493	-0.062103	-0.10696	-0.052032	-0.002899	-0.045624	0.079956	-0.13641	-0.019073	0.16876	-0.34012	-0.35812	0.013428	0.56732	0.61066	-0.093994	0.19226	-1.0347	-0.016174	0.13016	-0.005035	0.13397	-0.001068	0	-0.004578
33.899	0.005493	-0.17868	-0.10101	-0.012207	0.010071	0.018158	-0.31769	0.001526	-0.05722	-0.084686	-0.050507	-0.005341	-0.044556	0.081329	-0.074463	-0.017395	0.12131	-0.36255	-0.16892	0.061188	0.60074	0.63309	-0.16525	0.20371	-0.80582	-0.011444	0.18997	-0.006256	-0.22446	-0.055389	-0.000916	-0.008087
33.9	0.002899	-0.17288	-0.10513	0.013428	0.018158	0.009308	-0.32227	-0.00412	-0.068817	-0.11429	-0.016022	-0.005493	-0.048676	-0.000153	0.07431	-0.021057	0.048676	-0.35095	0.40543	0.083923	0.34851	0.72937	-0.01236	0.020447	-0.76157	-0.007172	0.24353	-0.005493	-0.11826	-0.069885	0.001221	-0.005493
33.901	0.00412	-0.17792	-0.12878	0.007935	-0.012665	-0.022125	-0.32684	0.001068	-0.07782	-0.099487	-0.00412	-0.013885	-0.041656	0.000763	0.13947	-0.018463	0.006409	-0.29999	0.35904	0.041962	0.36987	0.59174	0.22339	-0.26093	-0.64163	0.001678	0.16541	-0.009155	-0.072327	0.02594	0.00061	-0.005493
33.902	-0.001526	-0.18326	-0.11322	0.007172	-0.03952	-0.10513	-0.35553	0.000458	-0.085754	-0.039825	0.019836	-0.005951	-0.043793	-0.007629	0.11231	-0.024567	-0.05249	-0.28656	0.10452	-0.059509	0.44113	0.45624	0.17349	-0.31113	-0.35278	-0.003815	0.030518	-0.001068	0.042572	0.018768	0.002136	-0.007935
33.903	-0.003357	-0.2153	-0.12695	0.019073	-0.03067	-0.11032	-0.33188	0.006866	-0.093079	0.011749	0.003357	-0.006561	-0.052948	0.020905	0.027924	-0.025635	-0.079346	-0.29098	0.067749	-0.085144	0.32379	0.48996	-0.005035	-0.2356	-0.097046	-0.001221	0.041199	-0.000916	0.026398	-0.043488	0	-0.013275
33.904	-0.006409	-0.16663	-0.13092	0.010223	-0.00946	-0.091858	-0.34119	0.005493	-0.099945	0.19089	-0.009155	-0.01297	-0.036163	0.083313	-0.032349	-0.84412	-0.10208	-0.22507	-0.57037	-0.12177	0.26535	0.53009	-0.18127	-0.23071	0.029907	-0.003052	0.2092	-0.00061	-0.020294	-0.067902	-0.00061	-0.010376
33.905	0.00351	-0.14023	-0.087738	0.007172	0.059357	-0.089264	-0.34561	0.007172	-0.086823	0.45258	0.000153	-0.00946	0.049744	0.031891	-0.057526	0.25375	-0.093689	-0.1561	-0.68329	-0.062103	0.2417	0.52109	-0.25528	-0.27329	0.055389	-0.007782	0.18295	-0.000305	-0.028839	-0.052795	0.001068	-0.00946
33.906	0.006866	-0.12665	-0.078278	0.002594	0.063477	-0.050201	-0.3656	0.005493	-0.071716	0.40588	-0.00885	-0.015411	0.14816	0.007629	-0.012512	0.75317	-0.11719	-0.24689	-0.29358	0.025635	0.20874	0.46005	-0.35767	-0.22293	0.028534	-0.007782	0.069885	-0.001984	0.090637	-0.055847	-0.002289	-0.005188
33.907	0.01709	-0.10468	-0.1181	0.011444	0.03418	-0.028076	-0.37308	0.003052	-0.064697	0.32272	0.003204	-0.020752	0.14938	-0.070648	0.024567	-0.19134	-0.12817	-0.34332	0.18249	-0.015717	0.15778	0.4425	-0.46692	-0.16541	-0.043335	-0.002747	0.17975	-0.007477	0.032806	-0.040741	-0.000916	-0.002899
33.908	0.012512	-0.14023	-0.20721	0.013733	-0.002441	0.070648	-0.39581	-0.00061	-0.064545	0.43655	0.00824	-0.020905	0.068665	-0.038757	0.026245	0.058289	-0.12131	-0.33295	0.68161	0.0354	0.27908	0.43884	-0.29587	-0.093231	-0.10361	0.002136	0.14465	-0.007477	-0.042572	-0.008545	-0.005951	0.001068
33.909	0.014191	-0.049286	-0.12192	0.007019	-0.024872	0.083771	-0.40131	-0.000763	-0.061188	0.34515	0.003815	-0.019226	0.019836	-0.078125	0.034332	-0.21606	-0.10223	-0.33722	0.61447	0.021973	0.30716	0.35751	-0.15717	-0.096283	-0.18173	-0.008087	0.088196	-0.002289	-0.099487	-0.040283	0.005646	-0.003662
33.91	0.010071	0.005035	-0.014038	0.010529	-0.016479	-0.008698	-0.38956	-0.003204	-0.063171	0.30594	-0.000916	-0.00412	0.006409	-0.14175	0.043945	0.15015	-0.076447	-0.40695	0.59921	-0.079803	0.39978	0.2153	-0.16373	-0.057068	-0.24582	-0.013885	0.0737	-0.005493	-0.1445	-0.10544	0.000305	-0.007019
33.911	0.013428	0.026703	0.09613	0.001831	-0.012512	-0.023804	-0.39612	0.001221	-0.053406	-0.023956	-0.006409	0.007172	0.015869	-0.17853	0.032349	-0.099792	-0.067749	-0.56503	-0.02121	-0.084839	0.32562	0.10132	-0.22003	-0.03952	-0.12436	-0.014496	-0.053711	-0.00946	-0.080566	-0.10132	-0.001831	-0.010681
33.912	0.00412	0.037231	0.12985	0.006104	0.005341	-0.034943	-0.37445	0.005035	-0.052795	-0.081024	0.002594	-0.03418	-0.005951	-0.063782	0.006561	-0.041351	-0.009766	-0.6926	-0.54947	-0.093231	0.19714	0.040894	-0.19287	-0.10727	-0.035553	-0.014954	-0.19318	-0.009155	0.006561	-0.10208	0.001526	-0.007324
33.913	0.009308	0.054626	0.11429	-0.004883	0.025024	-0.00946	-0.37247	0.000763	-0.038605	-0.012817	0.00351	0.050049	-0.04715	-0.29633	0.017853	0.11307	0.021667	-0.67658	-0.7161	-0.11581	0.10925	0.022736	-0.097351	-0.14877	0.049896	-0.007629	-0.31754	-0.003662	0.11765	-0.12863	0.000763	-0.002289
33.914	0.005188	0.02182	0.11551	0.021515	0.014496	0.10117	-0.36423	0.006256	-0.042725	-0.29129	0.000458	0.05661	0.043488	-0.42145	0.015717	0.051422	0.024109	-0.6131	-0.40207	-0.075836	-0.061646	0.058899	-0.076294	-0.077972	0.11536	-0.008392	-0.26398	-0.005341	0.10117	-0.076904	0.000458	-0.004272
33.915	0.000153	0.012665	0.15823	0.02594	-0.015259	0.15274	-0.35797	0.008087	-0.043182	-0.58701	0.000763	-0.008087	0.14145	-0.19211	0.005035	-0.01297	0.014801	-0.68314	-0.31479	-0.11978	-0.2565	0.1413	-0.11215	-0.13275	0.13031	-0.005341	-0.055847	-0.005798	0.045013	-0.089264	0.007172	-0.007324
33.916	0.007629	0.062408	0.17761	0.034332	-0.015259	0.12024	-0.35156	0.001984	-0.046234	-0.45807	-0.00351	-0.019836	0.10452	-0.028381	-0.012817	-0.028076	-0.015106	-0.74707	-0.24399	-0.098419	-0.30609	0.38071	-0.16632	-0.10315	0.13077	0.011292	0.39764	-0.006714	-0.021515	-0.08728	-0.000458	-0.008698
33.917	0.013123	0.12207	0.20309	0.016937	0.023193	0.030365	-0.36072	0.001221	-0.029449	-0.47089	0.012512	0.007172	0.067291	0.15503	-0.010529	-0.045624	-0.049286	-0.9169	-0.18402	-0.019226	0.041504	0.57312	-0.046539	-0.11429	0.12253	0.003815	0.44708	-0.004883	-0.040741	-0.087433	0.000916	-0.011444
33.918	0.01358	0.090485	0.23392	-0.002289	0.026398	-0.022888	-0.33936	0.000305	-0.00473	-0.46585	0.006714	0.009155	0.11841	0.13626	-0.013885	0.006561	-0.056	-0.97641	-0.22049	0.00885	0.37277	0.57556	0.043945	-0.10346	0.14069	-0.006409	0.4895	-0.007629	-0.12695	-0.12299	-0.001678	-0.014496
33.919	0.010529	0.08194	0.24277	0.011444	0.011597	-0.014954	-0.34225	0.008545	-0.007324	-0.13702	0.008087	-0.005798	0.13092	0.11887	-0.011597	0.007629	-0.059967	-0.93887	-0.25848	0.045319	0.39352	0.6221	0.13168	0.036163	0.09903	-0.002289	0.44708	-0.002747	-0.13229	-0.14969	-0.000763	-0.003662
33.92	0.005798	0.12421	0.29266	0.000153	-0.010071	-0.034637	-0.33722	0.003357	-0.011597	0.28656	0.008545	-0.030518	0.0177	0.112	-0.005035	0.013428	-0.044556	-0.95764	-0.19821	0.057831	0.29068	0.5043	0.12116	0.13489	0.042114	-0.006561	0.48202	-0.001831	-0.048218	-0.084534	-0.001831	-0.014343
33.921	0.002441	0.047455	0.31906	-0.007629	-0.007935	-0.022125	-0.3183	0.005646	0.008545	0.35446	0.005493	-0.038757	-0.083923	0.21881	0.001678	0.052032	-0.039978	-0.96878	-0.16449	0.073242	0.20447	0.37003	0.04425	0.078735	-0.070953	-0.007629	0.62683	-0.006561	-0.022888	-0.037384	-0.003052	-0.009613
33.922	0.006561	0.065918	0.31128	-0.00412	-0.004578	-0.04425	-0.3215	0.005035	0.014038	-0.2359	0.005798	0.080261	-0.075531	0.16647	0.014038	0.043945	-0.020599	-0.98663	-0.08194	0.057983	0.15762	0.233	0.00946	0.036469	-0.16525	0.001678	0.55786	-0.002899	0.09552	-0.063324	-0.001068	-0.004272
33.923	0.006409	0.005798	0.31433	0.023346	0.006866	-0.019989	-0.32638	0.007782	0.019073	-0.63812	0.00351	-0.085144	-0.014496	0.18326	0.004883	-0.044708	-0.002747	-0.81421	-0.11307	0.03891	0.065613	0.14877	-0.048828	-0.048828	-0.074463	0.002747	0.093384	-0.004883	0.27603	-0.098877	-0.002594	-0.002594
33.924	0.007324	-0.00412	0.34592	0.014343	0.01297	0.030975	-0.3215	0.006714	0.034027	-0.3418	0.00824	-0.024719	-0.00061	0.17303	0.00946	-0.011749	0.017853	-0.39414	-0.2272	0.036163	0.037689	0.069885	-0.034332	-0.010681	0.025635	0.005646	-0.6041	-0.002747	0.32638	-0.12955	-0.000763	-0.003662
33.925	0.006866	0.097656	0.33463	0.006409	0.022125	0.027618	-0.32272	0.006256	0.050812	-0.032959	0.019379	0.066071	0.002441	0.27374	-0.012817	-0.003052	0.054169	-0.19134	-0.28656	0.023499	0.16556	-0.082703	0.050812	-0.21988	0.002136	0.000916	-1.4297	0.001068	0.29205	-0.11856	0.003815	0.000305
33.926	0.006866	0.1088	0.31433	-0.005798	0.024109	0.06485	-0.32166	-0.019226	0.050659	0.31311	0.003052	0.019379	0.02182	0.65582	-0.039673	-0.56046	0.089417	-0.12482	-0.26932	-0.023346	0.12833	-0.18097	0.16327	-0.17319	-0.02243	-0.002441	-0.99579	-0.005188	0.18387	-0.02594	0.001221	-0.002136
